<svg xmlns="http://www.w3.org/2000/svg" version="1.1" xmlns:xlink="http://www.w3.org/1999/xlink" xmlns:svgjs="http://svgjs.com/svgjs" width="560" height="560" preserveAspectRatio="none" viewBox="0 0 560 560"><g mask="url(&quot;#SvgjsMask1048&quot;)" fill="none"><path d="M32.94 140C32.94 130.09 4.14 135.62 0 118.04C-12.33 65.62 -32.02 27 0 0C37.98 -32.02 70 0 140 0C210 0 210 0 280 0C350 0 350 0 420 0C490 0 525 -35 560 0C595 35 560 70 560 140C560 210 560 210 560 280C560 350 560 350 560 420C560 490 595 525 560 560C525 595 490 560 420 560C363.38 560 350.44 579.58 306.76 560C280.44 548.2 300.35 497.24 280 497.24C251.97 497.24 250.12 542.01 210 560C180.12 573.39 175 560 140 560C70 560 35 595 0 560C-35 525 0 490 0 420C0 350 0 350 0 280C0 218.12 -12.7 210.21 0 156.23C3.77 140.21 32.94 149.19 32.94 140" stroke="rgba(29, 33, 41, 0.78)" stroke-width="2"></path><path d="M420 77.78C400.95 77.78 413.75 108.86 407.83 140C394.52 209.97 377.56 213.03 381.54 280C383.65 315.43 401 344.81 420 344.81C438.84 344.81 441.77 313.93 457.23 280C488.43 211.53 524.01 197.99 513.33 140C505.39 96.88 453.7 77.78 420 77.78" stroke="rgba(29, 33, 41, 0.78)" stroke-width="2"></path><path d="M135.88 140C141.17 137.03 138.64 134.36 140 128.33C154.45 64.36 129.81 34.55 167.5 0C199.81 -29.62 223.75 0 280 0C328.46 0 366.65 -27.8 376.92 0C392.52 42.2 340.4 68.38 331.74 140C323.48 208.38 356.47 214.08 343.08 280C330.6 341.48 320 346.34 280 394.8C262.21 416.34 250.75 402.9 227.5 420C180.75 454.39 191.5 475.5 140 497.78C77.75 524.72 41.28 541.38 0 518.44C-28.72 502.49 0 469.22 0 420C0 350 0 350 0 280C0 243.48 -22.1 229.73 0 206.96C45.84 159.73 71.17 176.35 135.88 140" stroke="rgba(28, 36, 57, 0.74)" stroke-width="2"></path><path d="M86.9 0C86.9 13.22 29.08 49.41 0 49.41C-14.37 49.41 -15.75 8.96 0 0C27.7 -15.75 86.9 -11.49 86.9 0" stroke="rgba(28, 36, 57, 0.74)" stroke-width="2"></path><path d="M560 48C544.33 48 507.5 13.81 507.5 0C507.5 -10.19 546.29 -12.54 560 0C572.54 11.46 570.58 48 560 48" stroke="rgba(28, 36, 57, 0.74)" stroke-width="2"></path><path d="M494.47 280C524.59 232.33 541.94 188.06 560 188.06C574.71 188.06 560 234.03 560 280C560 350 560 350 560 420C560 490 595 525 560 560C525 595 490 560 420 560C389.12 560 364.79 581.3 358.24 560C343.25 511.3 353.41 477.23 376.92 420C384.29 402.05 406.56 425.63 420 409.63C465.34 355.63 454.59 343.12 494.47 280" stroke="rgba(44, 50, 61, 0.74)" stroke-width="2"></path><path d="M280 100C256.42 100 230 34.55 230 0C230 -15.45 255 0 280 0C301.54 0 323.08 -14.17 323.08 0C323.08 35.83 302.96 100 280 100" stroke="rgba(28, 36, 57, 0.74)" stroke-width="2"></path><path d="M0 257.68C60.8 227.93 68.73 229.56 140 211.49C208.73 194.06 230.97 166.27 280 186.67C313.28 200.52 304.62 234.85 304.62 280C304.62 303.91 300.96 312.38 280 324.8C218.65 361.17 205.66 344.09 140 377.58C112.32 391.69 119.9 403.64 93.33 420C49.9 446.73 32.76 463.75 0 463.75C-13.9 463.75 0 441.88 0 420C0 350 0 350 0 280C0 268.84 -9.2 262.18 0 257.68" stroke="rgba(29, 33, 41, 0.78)" stroke-width="2"></path><path d="M531.7 280C540.46 257.52 552.2 240.3 560 240.3C566.35 240.3 560 260.15 560 280C560 350 560 350 560 420C560 490 595 525 560 560C525 595 490 560 420 560C414.86 560 409.71 563.54 409.71 560C409.71 550.08 412.85 545.55 420 533.08C452.99 475.55 463.38 480.3 490 420C519.23 353.76 505.46 347.37 531.7 280" stroke="rgba(28, 36, 57, 0.74)" stroke-width="2"></path></g><defs><mask id="SvgjsMask1048"><rect width="560" height="560" fill="#ffffff"></rect></mask></defs></svg>